<svg id="Layer_1" data-name="Layer 1" xmlns="http://www.w3.org/2000/svg" viewBox="0 0 75.46 8.75"><defs><style>.cls-1{fill:#222;}</style></defs><path class="cls-1" d="M14.32,3.48h-.27V.86h.83c.6,0,.87.18.87.72a.63.63,0,0,1-.55.73l.61,1.17h-.32l-.58-1.14h-.59Zm0-1.37h.54c.4,0,.61-.08.61-.51s-.2-.5-.61-.5h-.54Z"/><path class="cls-1" d="M16.33,3.48V.86H17.9V1.1H16.61V2h1.12v.23H16.61v1H17.9v.24Z"/><path class="cls-1" d="M18.73,3.48h-.28V.86h.82c.6,0,.87.19.87.75s-.27.79-.87.79h-.54Zm0-1.32h.52c.4,0,.61-.08.61-.53s-.2-.53-.61-.53h-.52Z"/><path class="cls-1" d="M22.33,2.57a.83.83,0,0,1-.93,1c-.56,0-.88-.27-.88-.91V.86h.27V2.58c0,.5.21.7.63.7s.64-.2.64-.7V.86h.27Z"/><path class="cls-1" d="M23.83,3.48H23V.86h.83c.59,0,.83.23.83.68a.55.55,0,0,1-.32.58v0a.57.57,0,0,1,.37.62C24.71,3.26,24.45,3.48,23.83,3.48Zm0-2.38h-.59V2h.59c.32,0,.52-.11.52-.46S24.18,1.1,23.86,1.1Zm0,1.16h-.62v1h.62c.36,0,.54-.15.54-.49S24.25,2.26,23.89,2.26Z"/><path class="cls-1" d="M25.27,3.48V.86h.28V3.24h1.22v.24Z"/><path class="cls-1" d="M27.22,3.48V.86h.28V3.48Z"/><path class="cls-1" d="M28.23.86h.27V2h.25L29.6.86h.32L29,2.12l1,1.36h-.33l-.88-1.23H28.5V3.48h-.27Z"/><path class="cls-1" d="M31.73,2.84H30.62l-.2.64h-.28L31,.86h.37l.86,2.62h-.29Zm-1-.23h1l-.47-1.5h0Z"/><path class="cls-1" d="M34.09,3.52a2,2,0,0,1-.71-.12l.06-.24a1.92,1.92,0,0,0,.69.12c.37,0,.55-.1.55-.47s-.12-.41-.56-.54S33.4,2,33.4,1.52s.26-.7.81-.7a1.84,1.84,0,0,1,.66.12l0,.23a1.73,1.73,0,0,0-.6-.11c-.39,0-.54.13-.54.44s.17.41.51.51c.61.19.77.33.77.78S34.72,3.52,34.09,3.52Z"/><path class="cls-1" d="M35.47,3.48V.86h.28V3.24H37v.24Z"/><path class="cls-1" d="M37.16,2.18c0-1,.32-1.36,1-1.36s1,.34,1,1.35-.32,1.35-1,1.35S37.16,3.19,37.16,2.18Zm1.72,0c0-.81-.17-1.1-.72-1.1s-.71.28-.71,1.1.17,1.12.71,1.12S38.88,3,38.88,2.16Z"/><path class="cls-1" d="M39.43.86h.28l.7,2.35h0L41.12.86h.27l-.78,2.62h-.39Z"/><path class="cls-1" d="M41.79,3.48V.86h1.57V1.1H42.07V2h1.12v.23H42.07v1h1.29v.24Z"/><path class="cls-1" d="M44.19,1.16h0V3.48h-.25V.86h.41L45.5,3.18h0V.86h.26V3.48h-.41Z"/><path class="cls-1" d="M46.5,3.48V.86h.27V3.48Z"/><path class="cls-1" d="M47.85.86V3.27a.78.78,0,0,1-.64.89l-.08-.23a.56.56,0,0,0,.44-.64V.86Z"/><path class="cls-1" d="M49.79,2.84H48.68l-.21.64h-.28L49.05.86h.37l.86,2.62H50Zm-1-.23h1l-.47-1.5h0Z"/><path class="cls-1" d="M14.56,5.25l.53,1.19h0l.53-1.19h.59V7.87h-.46V5.93h0L15.3,7h-.43l-.45-1h0V7.87H14V5.25Z"/><path class="cls-1" d="M16.78,7.87V5.25h.5V7.87Z"/><path class="cls-1" d="M18.31,5.9h0v2h-.45V5.25h.67l.89,2h0v-2h.46V7.87h-.68Z"/><path class="cls-1" d="M20.43,7.87V5.25h.5V7.87Z"/><path class="cls-1" d="M22.13,7.91a2.39,2.39,0,0,1-.76-.11l.09-.44a2.28,2.28,0,0,0,.7.12c.24,0,.41-.07.41-.33s-.1-.28-.44-.38-.74-.3-.74-.8.31-.77.9-.77a1.81,1.81,0,0,1,.69.14l-.06.42a1.75,1.75,0,0,0-.62-.12c-.22,0-.38,0-.38.28s.15.32.46.41c.54.15.72.3.72.78S22.83,7.91,22.13,7.91Z"/><path class="cls-1" d="M24.44,5.69V7.87h-.51V5.69h-.69V5.25h1.88v.44Z"/><path class="cls-1" d="M26.88,6.76l.58,1.11h-.59l-.5-1H26v1h-.51V5.25h.9c.72,0,.93.27.93.78A.69.69,0,0,1,26.88,6.76Zm-.54-1.08H26v.74h.36c.35,0,.44-.1.44-.38S26.67,5.68,26.34,5.68Z"/><path class="cls-1" d="M28.45,7.91a2.39,2.39,0,0,1-.76-.11l.09-.44a2.28,2.28,0,0,0,.7.12c.24,0,.41-.07.41-.33s-.1-.28-.44-.38-.74-.3-.74-.8.31-.77.9-.77a1.81,1.81,0,0,1,.69.14l-.06.42a1.8,1.8,0,0,0-.62-.12c-.22,0-.38,0-.38.28s.15.32.46.41c.54.15.72.3.72.78S29.15,7.91,28.45,7.91Z"/><path class="cls-1" d="M30.76,5.69V7.87h-.51V5.69h-.69V5.25h1.88v.44Z"/><path class="cls-1" d="M33.06,7.87h-.77l-.71-2.62h.54l.56,2.17h0l.56-2.17h.52Z"/><path class="cls-1" d="M33.94,6.56c0-1,.35-1.36,1.07-1.36s1.07.31,1.07,1.35S35.74,7.91,35,7.91,33.94,7.61,33.94,6.56Zm1.61,0c0-.7-.11-.9-.54-.9s-.54.2-.54.9.11.92.54.92S35.55,7.24,35.55,6.55Z"/><path class="cls-1" d="M37.21,7.87V7.42l1.17-1.74H37.26V5.25H39v.44L37.77,7.43H39v.44Z"/><path class="cls-1" d="M40.72,7.31h-.89l-.15.56h-.53l.79-2.62h.69l.79,2.62h-.55ZM40,6.89h.65l-.32-1.18h0Z"/><path class="cls-1" d="M42.43,6.56c0-1,.35-1.36,1.07-1.36s1.07.31,1.07,1.35-.34,1.36-1.07,1.36S42.43,7.61,42.43,6.56Zm1.61,0c0-.7-.11-.9-.54-.9s-.54.2-.54.9.11.92.54.92S44,7.24,44,6.55Z"/><path class="cls-1" d="M45,5.25h.5V6.31h.15l.7-1.06H47L46.09,6.5,47,7.87h-.6l-.72-1.15h-.14V7.87H45Z"/><path class="cls-1" d="M47.08,6.56c0-1,.35-1.36,1.07-1.36s1.07.31,1.07,1.35-.34,1.36-1.07,1.36S47.08,7.61,47.08,6.56Zm1.61,0c0-.7-.11-.9-.54-.9s-.54.2-.54.9.11.92.54.92S48.69,7.24,48.69,6.55Z"/><path class="cls-1" d="M49.67,7.87V5.25h.51V7.42h1.09v.45Z"/><path class="cls-1" d="M51.25,8.22c.34-.11.44-.24.44-.59V5.25h.51V7.59a.92.92,0,0,1-.81,1.06Z"/><path class="cls-1" d="M52.75,7.87V5.25h1.68v.44H53.26v.64h1v.44h-1v.65h1.17v.45Z"/><path class="cls-1" d="M55.68,7.87V5.25h.51V7.87Z"/><path class="cls-1" d="M57.21,5.9h0v2h-.46V5.25h.67l.89,2h0v-2h.45V7.87h-.68Z"/><path class="cls-1" d="M61,6.89h-.4v1h-.51V5.25H61c.71,0,.93.27.93.79S61.72,6.89,61,6.89Zm0-1.2h-.37v.76H61c.35,0,.44-.1.44-.38S61.34,5.69,61,5.69Z"/><path class="cls-1" d="M63.71,6.76l.57,1.11H63.7l-.51-1H62.8v1h-.5V5.25h.9c.71,0,.93.27.93.78A.71.71,0,0,1,63.71,6.76Zm-.54-1.08H62.8v.74h.37c.35,0,.44-.1.44-.38S63.5,5.68,63.17,5.68Z"/><path class="cls-1" d="M64.53,6.56c0-1,.35-1.36,1.07-1.36s1.07.31,1.07,1.35-.34,1.36-1.07,1.36S64.53,7.61,64.53,6.56Zm1.61,0c0-.7-.11-.9-.54-.9s-.54.2-.54.9.11.92.54.92S66.14,7.24,66.14,6.55Z"/><path class="cls-1" d="M67.76,7.91A2.44,2.44,0,0,1,67,7.8l.09-.44a2.28,2.28,0,0,0,.7.12c.24,0,.42-.07.42-.33s-.11-.28-.45-.38S67,6.47,67,6s.31-.77.9-.77a1.9,1.9,0,0,1,.7.14l-.07.42a1.75,1.75,0,0,0-.62-.12c-.22,0-.38,0-.38.28s.15.32.46.41c.54.15.73.3.73.78S68.46,7.91,67.76,7.91Z"/><path class="cls-1" d="M70,5.69V7.87h-.51V5.69h-.68V5.25h1.87v.44Z"/><path class="cls-1" d="M70.88,6.56c0-1,.35-1.36,1.07-1.36S73,5.51,73,6.55,72.67,7.91,72,7.91,70.88,7.61,70.88,6.56Zm1.6,0c0-.7-.11-.9-.53-.9s-.54.2-.54.9.11.92.54.92S72.48,7.24,72.48,6.55Z"/><path class="cls-1" d="M74.88,6.76l.58,1.11h-.59l-.51-1H74v1h-.51V5.25h.9c.71,0,.93.27.93.78A.69.69,0,0,1,74.88,6.76Zm-.54-1.08H74v.74h.36c.35,0,.44-.1.44-.38S74.67,5.68,74.34,5.68Z"/><path class="cls-1" d="M6.73,4.74a4.46,4.46,0,0,1-3.24,4,4.44,4.44,0,0,1-3.25-4L0,.84a7.65,7.65,0,0,1,7,0ZM6.47.9,6.23,4.71A4,4,0,0,1,3.49,8.24,3.94,3.94,0,0,1,.74,4.71L.49.9.27,1,.5,4.72a4.2,4.2,0,0,0,3,3.76,4.2,4.2,0,0,0,3-3.76L6.69,1A1.56,1.56,0,0,0,6.47.9ZM2.78,4.47l-.5-.66L1.1,5.39c.08.4.28.59.78.59.34,0,.4-.21.8-.21s.44.21.81.21.38-.21.79-.21.46.21.81.21a.69.69,0,0,0,.78-.6L4.68,3.81l-.49.66-.7-1.42ZM5.09,6.54a.73.73,0,0,0,.3-.07l.17-.29a1.16,1.16,0,0,1-.47.12c-.39,0-.42-.21-.81-.21s-.41.21-.8.21-.41-.21-.8-.21-.43.21-.8.21a1.24,1.24,0,0,1-.48-.13c.06.09.11.2.18.3a.8.8,0,0,0,.3.06c.41,0,.4-.21.8-.21s.42.22.8.22.43-.22.8-.22S4.7,6.54,5.09,6.54Zm-.81.1c-.36,0-.37.21-.79.21S3,6.64,2.68,6.64s-.37.21-.83.21A3.86,3.86,0,0,0,3.49,8,3.72,3.72,0,0,0,5.11,6.85C4.66,6.85,4.65,6.64,4.28,6.64ZM2.51.81l-.3,0L2.39,1l-.2.24.32,0,.12.28.12-.28.3,0L2.87,1,3.05.78l-.3,0L2.63.54Zm.86,1.13-.31,0,.19.24-.2.24.32,0,.12.28.12-.28.3,0-.18-.24.18-.24-.3,0-.12-.27ZM4.2.81l-.31,0L4.08,1l-.2.24.32,0,.12.28.12-.28.3,0L4.56,1,4.74.78l-.3,0L4.32.54Z"/></svg>