<svg id="Layer_1" data-name="Layer 1" xmlns="http://www.w3.org/2000/svg" viewBox="0 0 296.5 96.21"><defs><style>.cls-1{fill:#222;}</style></defs><path class="cls-1" d="M31.13,37.77H8.76a7.4,7.4,0,0,1,.86-3.32,11.21,11.21,0,0,1,2.91-3.16,55.12,55.12,0,0,1,6.2-4.13A52.71,52.71,0,0,0,25,23a14.14,14.14,0,0,0,3.77-4.57,13.49,13.49,0,0,0,1.37-6.3,11.4,11.4,0,0,0-1.79-6.39,11.64,11.64,0,0,0-5-4.25A18,18,0,0,0,15.66,0Q8.76,0,4.76,3.64T.58,14h7.6q.32-7.6,7.48-7.61a6.77,6.77,0,0,1,4.82,1.66,5.76,5.76,0,0,1,1.76,4.41,7.9,7.9,0,0,1-1,4.13,12,12,0,0,1-3,3.26,57.4,57.4,0,0,1-5.62,3.61,34.69,34.69,0,0,0-7.8,5.75A15.7,15.7,0,0,0,1,35.15,24.53,24.53,0,0,0,0,42.7,12,12,0,0,0,.06,44H31.13Z"/><path class="cls-1" d="M53.42,44H61V33.68h6.58V27.61H61V1H50.86l-18,26.2v6.52H53.42ZM40,27.61l4.54-6.52Q50.68,12,53.8,6.9h.13q-.32,8.44-.32,15.15v5.56Z"/><rect class="cls-1" x="71.83" y="34.96" width="8.44" height="9.08"/><path class="cls-1" d="M11,85.67a11.22,11.22,0,0,1,2.91-3.17,56.72,56.72,0,0,1,6.2-4.12,54,54,0,0,0,6.23-4.15,14.14,14.14,0,0,0,3.77-4.57,13.49,13.49,0,0,0,1.37-6.3A11.38,11.38,0,0,0,29.64,57a11.64,11.64,0,0,0-5.05-4.25,18,18,0,0,0-7.6-1.5q-6.9,0-10.9,3.64T1.91,65.21h7.6q.32-7.6,7.48-7.6a6.72,6.72,0,0,1,4.82,1.66,5.76,5.76,0,0,1,1.76,4.41,7.86,7.86,0,0,1-1.05,4.12,11.72,11.72,0,0,1-3,3.26,55.58,55.58,0,0,1-5.62,3.61,34.69,34.69,0,0,0-7.8,5.76,15.62,15.62,0,0,0-3.71,5.94,24.51,24.51,0,0,0-1,7.54,11.87,11.87,0,0,0,.06,1.34H32.46V89H10.09A7.4,7.4,0,0,1,11,85.67Z"/><path class="cls-1" d="M36,58.63H59.52a78.93,78.93,0,0,0-8.76,15.6,110.06,110.06,0,0,0-6.65,21h8.31a99.93,99.93,0,0,1,5.76-19.94A84.53,84.53,0,0,1,67,58.76V52.18H36Z"/><rect class="cls-1" x="67.16" y="86.18" width="8.44" height="9.08"/><path class="cls-1" d="M86.63,57.77q-2.52,1.69-7.77,1.69V65h10V95.25h7.54V52.18H89.73A7.7,7.7,0,0,1,86.63,57.77Z"/><path class="cls-1" d="M123.2,51.22q-7.92,0-12.17,5.81t-4.26,16.69q0,10.86,4.26,16.68t12.17,5.81q7.92,0,12.14-5.81t4.22-16.68q0-10.87-4.22-16.69T123.2,51.22Zm6.3,34.48q-2.2,4.18-6.3,4.19t-6.36-4.19q-2.2-4.19-2.2-12t2.2-11.92q2.2-4.12,6.36-4.13t6.3,4.13q2.2,4.11,2.2,11.92T129.5,85.7Z"/><rect class="cls-1" x="144.23" y="86.18" width="8.44" height="9.08"/><path class="cls-1" d="M169.2,85.67a11.53,11.53,0,0,1,2.91-3.17,57.73,57.73,0,0,1,6.2-4.12,52.28,52.28,0,0,0,6.23-4.15,14,14,0,0,0,3.77-4.57,13.49,13.49,0,0,0,1.38-6.3A11.46,11.46,0,0,0,187.9,57a11.7,11.7,0,0,0-5.05-4.25,18,18,0,0,0-7.61-1.5q-6.9,0-10.89,3.64t-4.19,10.35h7.61q.31-7.6,7.47-7.6a6.73,6.73,0,0,1,4.83,1.66,5.8,5.8,0,0,1,1.76,4.41,7.78,7.78,0,0,1-1.06,4.12,11.53,11.53,0,0,1-3,3.26,55.92,55.92,0,0,1-5.63,3.61,34.69,34.69,0,0,0-7.8,5.76,15.72,15.72,0,0,0-3.7,5.94,24.49,24.49,0,0,0-1,7.54,11.51,11.51,0,0,0,.07,1.34h31.06V89H168.34A7.4,7.4,0,0,1,169.2,85.67Z"/><path class="cls-1" d="M210.42,51.22q-7.93,0-12.18,5.81T194,73.72q0,10.86,4.25,16.68t12.18,5.81q7.92,0,12.14-5.81t4.22-16.68q0-10.87-4.22-16.69T210.42,51.22Zm6.29,34.48q-2.21,4.18-6.29,4.19t-6.36-4.19q-2.2-4.19-2.21-12t2.21-11.92q2.2-4.12,6.36-4.13t6.29,4.13q2.21,4.11,2.21,11.92T216.71,85.7Z"/><path class="cls-1" d="M240.08,85.67A11.53,11.53,0,0,1,243,82.5a58.78,58.78,0,0,1,6.2-4.12,52.28,52.28,0,0,0,6.23-4.15,14.18,14.18,0,0,0,3.78-4.57,13.62,13.62,0,0,0,1.37-6.3A11.46,11.46,0,0,0,258.78,57a11.7,11.7,0,0,0-5-4.25,18,18,0,0,0-7.61-1.5q-6.9,0-10.89,3.64T231,65.21h7.61q.32-7.6,7.47-7.6A6.73,6.73,0,0,1,251,59.27a5.8,5.8,0,0,1,1.76,4.41,7.78,7.78,0,0,1-1.06,4.12,11.53,11.53,0,0,1-3,3.26A55.92,55.92,0,0,1,243,74.67a34.6,34.6,0,0,0-7.79,5.76,15.62,15.62,0,0,0-3.71,5.94,24.51,24.51,0,0,0-1,7.54,11.87,11.87,0,0,0,.06,1.34h31.06V89H239.22A7.4,7.4,0,0,1,240.08,85.67Z"/><path class="cls-1" d="M294.52,77.1a12.69,12.69,0,0,0-6.2-4V73A12.17,12.17,0,0,0,294,69.24a9.68,9.68,0,0,0,1.82-6.07,10.68,10.68,0,0,0-4-8.69q-4-3.27-10.74-3.26-7.16,0-11.22,3.74t-4.06,10.38h7.61q0-3.9,1.92-5.85a7.39,7.39,0,0,1,5.49-2,8,8,0,0,1,5.37,1.76,6.09,6.09,0,0,1-.35,9.4,10.51,10.51,0,0,1-6.49,1.82h-1.53v6.2h1.53q9.47,0,9.46,6.77a5.73,5.73,0,0,1-2.11,4.64,8.4,8.4,0,0,1-5.56,1.76c-2.68,0-4.71-.7-6.07-2.08a8.37,8.37,0,0,1-2-6.1h-7.66q0,7,4.12,10.73t11.66,3.77a19.75,19.75,0,0,0,8-1.53,12.3,12.3,0,0,0,5.4-4.35,11.25,11.25,0,0,0,1.92-6.52A10.66,10.66,0,0,0,294.52,77.1Z"/><rect class="cls-1" x="87.13" y="22.47" width="207.89" height="3"/></svg>