<svg id="Layer_1" data-name="Layer 1" xmlns="http://www.w3.org/2000/svg" viewBox="0 0 282.03 100.28"><defs><style>.cls-1{fill:#222;}</style></defs><path class="cls-1" d="M27,24.39V38.82H81.08v21.7H27V75.88H84.85V98.12H0v-96H84V24.39Z"/><path class="cls-1" d="M167.54,14.62Q181,27.1,181,50.14T167.54,85.65q-13.41,12.46-38.08,12.47H93.21v-96h36.25Q154.14,2.16,167.54,14.62ZM120.16,75.48h8.5q11.72,0,17.92-6.54t6.2-18.8q0-12.27-6.2-18.8T128.66,24.8h-8.5Z"/><path class="cls-1" d="M259.66,6.13a41.24,41.24,0,0,1,16.58,17.46Q282,34.9,282,50.14t-5.79,26.55a41.16,41.16,0,0,1-16.58,17.45q-10.79,6.14-25.2,6.14t-25.14-6.14a41.24,41.24,0,0,1-16.51-17.45Q187,65.37,187,50.14t5.8-26.55A41.32,41.32,0,0,1,209.32,6.13Q220,0,234.46,0T259.66,6.13ZM220.3,30q-5,7.08-5,20.15t5,20.15q5,7.06,14.16,7.07t14.28-7.07q5-7.08,5-20.15t-5-20.15q-5-7.08-14.28-7.08T220.3,30Z"/></svg>