<svg xmlns="http://www.w3.org/2000/svg" viewBox="0 0 47.44 32.98">
  <title>Artboard 46</title>
  <g id="Layer_1" data-name="Layer 1">
    <g>
      <g>
        <g>
          <path d="M8.72,11.19H7.47L6.7,6.64v4.55H5.36V4.89H7.48l.59,3.28.58-3.28h2.14v6.3H9.44V6.64Z" style="fill: #231f20"/>
          <path d="M11.48,11.19V4.89h2.78V6.11H12.89V7.34h1.32V8.52H12.89V10h1.46v1.23Z" style="fill: #231f20"/>
          <path d="M16.53,11.26a1.83,1.83,0,0,1-1.38-.44,2,2,0,0,1-.42-1.37V8.83h1.38V9.4c0,.4.11.61.33.61a.29.29,0,0,0,.25-.12.53.53,0,0,0,.09-.32,1.27,1.27,0,0,0-.07-.42,1.15,1.15,0,0,0-.21-.33c-.1-.11-.25-.25-.46-.44l-.59-.51a1.79,1.79,0,0,1-.72-1.38,1.67,1.67,0,0,1,.43-1.25,1.66,1.66,0,0,1,1.18-.41h.25a1.89,1.89,0,0,1,.5.09,1.44,1.44,0,0,1,.54.3,1.22,1.22,0,0,1,.36.57,3,3,0,0,1,.11.91H16.69V6.32A.31.31,0,0,0,16.4,6a.36.36,0,0,0-.24.09.29.29,0,0,0-.09.22c0,.18.13.37.39.58l.84.69a2.94,2.94,0,0,1,.36.33,2.14,2.14,0,0,1,.24.34l.15.31a1.32,1.32,0,0,1,.07.3,1.29,1.29,0,0,1,0,.24v.21a3.7,3.7,0,0,1,0,.6,1.85,1.85,0,0,1-.16.52,1.17,1.17,0,0,1-.29.42,1.1,1.1,0,0,1-.46.27A2,2,0,0,1,16.53,11.26Z" style="fill: #231f20"/>
          <path d="M25.43,8.47V9.66A1.48,1.48,0,0,1,25,10.87a2,2,0,0,1-1.31.39,1.71,1.71,0,0,1-1.21-.43A1.53,1.53,0,0,1,22,9.63V6.7a2,2,0,0,1,.41-1.4,1.65,1.65,0,0,1,1.3-.47,2.29,2.29,0,0,1,.66.09,1.71,1.71,0,0,1,.54.27,1.1,1.1,0,0,1,.37.45,1.51,1.51,0,0,1,.13.65V7.41H24V6.67c0-.37-.11-.56-.33-.56a.28.28,0,0,0-.27.12.85.85,0,0,0-.06.35v3a.58.58,0,0,0,.09.33.27.27,0,0,0,.24.15.33.33,0,0,0,.23-.11.56.56,0,0,0,.1-.37V8.47Z" style="fill: #231f20"/>
          <path d="M18.57,11.19V10H20V8.52H18.72V7.34H20V6.11H18.66V4.89h2.79v6.3Z" style="fill: #231f20"/>
        </g>
        <g>
          <path d="M29.67,22v5.89h-2.9V14.9h4.39a3.1,3.1,0,0,1,1.16.19,2,2,0,0,1,.75.47,2.14,2.14,0,0,1,.44.79,5,5,0,0,1,.2,1,10.14,10.14,0,0,1,0,1.19c0,.24,0,.44,0,.59a4.28,4.28,0,0,1-.09.59,2.14,2.14,0,0,1-.21.59,2,2,0,0,1-.42.46,2.08,2.08,0,0,1-.68.35,1.64,1.64,0,0,1,.66.27,1.16,1.16,0,0,1,.37.49,2.88,2.88,0,0,1,.16.54,4.75,4.75,0,0,1,0,.56c0,2.14,0,3.77,0,4.88H30.75V22.8a1.56,1.56,0,0,0-.06-.48.41.41,0,0,0-.23-.25.84.84,0,0,0-.32-.1Zm0-4.66v2.41h.72c.38,0,.57-.39.57-1.18a1.51,1.51,0,0,0-.23-1,1.31,1.31,0,0,0-.9-.22Z" style="fill: #231f20"/>
          <path d="M40.26,14.9l1.43,13H38.93l-.2-2H37.28l-.18,2H34.32L35.79,14.9Zm-2.13,2.43h-.26l-.38,6.21h1Z" style="fill: #231f20"/>
        </g>
        <g>
          <g>
            <path d="M5.36,23.29V11.8H8.72A3.68,3.68,0,0,1,9.88,12a2.49,2.49,0,0,1,.88.56,2.52,2.52,0,0,1,.58,1.08,6.21,6.21,0,0,1,.2,1.67,7.49,7.49,0,0,1-.12,1.45A3.27,3.27,0,0,1,11,17.8a1.79,1.79,0,0,1-.82.71,3.32,3.32,0,0,1-1.3.23h-1v4.55Zm2.5-9.4v2.78h.45l.24-.05a.36.36,0,0,0,.21-.13.82.82,0,0,0,.14-.25,1.22,1.22,0,0,0,.1-.4,4.91,4.91,0,0,0,0-.59,2,2,0,0,0-.2-1.05.76.76,0,0,0-.69-.3Z" style="fill: #231f20"/>
            <path d="M14.86,18.06v5.23H12.29V11.8h3.9a2.84,2.84,0,0,1,1,.16,1.72,1.72,0,0,1,.67.43,1.94,1.94,0,0,1,.39.7,4.49,4.49,0,0,1,.18.87c0,.29,0,.64,0,1.06,0,.21,0,.39,0,.53a2.45,2.45,0,0,1-.08.52,1.66,1.66,0,0,1-.19.52,1.39,1.39,0,0,1-.37.41,1.63,1.63,0,0,1-.6.31,1.54,1.54,0,0,1,.58.24.94.94,0,0,1,.33.44,2,2,0,0,1,.14.48,2.49,2.49,0,0,1,0,.49c0,1.9,0,3.35,0,4.33H15.82V18.81a1.17,1.17,0,0,0-.06-.42.35.35,0,0,0-.2-.23.8.8,0,0,0-.28-.08Zm0-4.13v2.14h.64c.33,0,.5-.35.5-1.05,0-.47-.06-.77-.2-.9a1.18,1.18,0,0,0-.8-.19Z" style="fill: #231f20"/>
            <path d="M19.33,20.19V14.71a3,3,0,0,1,.78-2.22,3.15,3.15,0,0,1,2.33-.81,3.24,3.24,0,0,1,2.38.81,3,3,0,0,1,.78,2.22v5.48a4.19,4.19,0,0,1-.18,1.27,3.07,3.07,0,0,1-.54,1,2.48,2.48,0,0,1-1,.69,3.49,3.49,0,0,1-1.41.22A3.67,3.67,0,0,1,21,23.18a2.44,2.44,0,0,1-1-.69,2.9,2.9,0,0,1-.54-1A4.19,4.19,0,0,1,19.33,20.19Zm3.13,1a.66.66,0,0,0,.25,0,.52.52,0,0,0,.16-.17,2,2,0,0,0,.1-.21,1.46,1.46,0,0,0,.05-.27c0-.12,0-.2,0-.26v-5.1a.66.66,0,0,0,0-.2V14.7a.84.84,0,0,0,0-.19s0-.1-.05-.17a.3.3,0,0,0-.07-.16l-.1-.12a.34.34,0,0,0-.14-.09l-.2,0a.67.67,0,0,0-.26.05.46.46,0,0,0-.18.16,1.85,1.85,0,0,0-.1.2.77.77,0,0,0-.06.27c0,.12,0,.2,0,.25v5a1.7,1.7,0,0,0,0,.25c0,.07,0,.16,0,.28a1,1,0,0,0,.06.29c0,.07.06.15.1.23a.47.47,0,0,0,.18.19A.53.53,0,0,0,22.46,21.15Z" style="fill: #231f20"/>
          </g>
          <g>
            <path d="M28.82,14.42a2.77,2.77,0,0,1-2.08-.66,2.94,2.94,0,0,1-.62-2v-.93h2.07v.85c0,.61.16.92.5.92a.43.43,0,0,0,.36-.18.77.77,0,0,0,.13-.47,1.72,1.72,0,0,0-.1-.64,1.66,1.66,0,0,0-.31-.5c-.14-.15-.37-.37-.69-.65l-.89-.76a2.7,2.7,0,0,1-1.07-2.08,2.48,2.48,0,0,1,.65-1.87,2.46,2.46,0,0,1,1.77-.61h.37a2.68,2.68,0,0,1,.74.13,2,2,0,0,1,.81.45,1.87,1.87,0,0,1,.54.86,4.44,4.44,0,0,1,.18,1.36H29.06V7a.44.44,0,0,0-.14-.29.42.42,0,0,0-.29-.12.48.48,0,0,0-.35.13.4.4,0,0,0-.15.33c0,.27.2.56.59.87L30,9a4.46,4.46,0,0,1,.54.51,2.65,2.65,0,0,1,.36.51c.09.17.16.32.22.46a1.89,1.89,0,0,1,.11.44c0,.16,0,.28,0,.36a2.92,2.92,0,0,1,0,.32,5.17,5.17,0,0,1-.07.91,3,3,0,0,1-.23.78,2.06,2.06,0,0,1-.43.63,2.14,2.14,0,0,1-.7.4A3.06,3.06,0,0,1,28.82,14.42Z" style="fill: #231f20"/>
            <path d="M31.6,4.87h4.56V6.69H34.92v7.63H32.84V6.69H31.6Z" style="fill: #231f20"/>
            <path d="M36.61,11.77V7.27a2.51,2.51,0,0,1,.64-1.83,3.13,3.13,0,0,1,3.87,0,2.47,2.47,0,0,1,.64,1.83v4.5a3.74,3.74,0,0,1-.14,1,2.43,2.43,0,0,1-.45.84,1.77,1.77,0,0,1-.8.57,2.86,2.86,0,0,1-1.16.19A3,3,0,0,1,38,14.22a1.89,1.89,0,0,1-.8-.57,2.41,2.41,0,0,1-.44-.84A3.39,3.39,0,0,1,36.61,11.77Zm2.58.79a.46.46,0,0,0,.2-.05.33.33,0,0,0,.13-.13.91.91,0,0,0,.08-.18.62.62,0,0,0,0-.22c0-.09,0-.16,0-.21v-4a1,1,0,0,1,0-.14V7.42a.71.71,0,0,1,0-.16.63.63,0,0,0,0-.16l0-.14a.53.53,0,0,0-.06-.13l-.08-.1a.24.24,0,0,0-.12-.07l-.16,0a.51.51,0,0,0-.22,0,.29.29,0,0,0-.14.13,1.47,1.47,0,0,0-.09.17.55.55,0,0,0-.05.22,2,2,0,0,0,0,.21V11.7c0,.05,0,.12,0,.22a.75.75,0,0,0,0,.24,1.13,1.13,0,0,0,.09.2.4.4,0,0,0,.14.15A.51.51,0,0,0,39.19,12.56Z" style="fill: #231f20"/>
          </g>
        </g>
      </g>
      <polygon points="47.44 32.98 36.94 32.98 36.94 30.78 45.24 30.78 45.24 22.48 47.44 22.48 47.44 32.98" style="fill: #231f20"/>
      <polygon points="2.2 10.5 0 10.5 0 0 10.5 0 10.5 2.2 2.2 2.2 2.2 10.5" style="fill: #231f20"/>
    </g>
  </g>
</svg>
