<svg id="Layer_1" data-name="Layer 1" xmlns="http://www.w3.org/2000/svg" viewBox="0 0 627.93 26.29"><defs><style>.cls-1{fill:#222;}</style></defs><path class="cls-1" d="M2.81,2.66v7.42H13v2.5H2.81v9.31H0V.15H13.62V2.66Z"/><path class="cls-1" d="M16.37,3.18v-3h2.69v3Zm0,18.71V6.38h2.69V21.89Z"/><path class="cls-1" d="M23.23,21.89V.15h2.69V21.89Z"/><path class="cls-1" d="M50.47,7.63a7,7,0,0,1,1.36,4.67v9.59H49.14V12.52a5.24,5.24,0,0,0-.8-3.27,2.87,2.87,0,0,0-2.37-1A3.16,3.16,0,0,0,43.3,9.56a5.72,5.72,0,0,0-1,3.54v8.79H39.62V12.12a4.42,4.42,0,0,0-.83-2.85,2.78,2.78,0,0,0-2.32-1,3.17,3.17,0,0,0-2.7,1.35,6.08,6.08,0,0,0-1,3.69v8.61H30.09V6.38h2.6V8.3h.06a5.4,5.4,0,0,1,7.14-1.51A4.64,4.64,0,0,1,41.7,9,5.29,5.29,0,0,1,46.61,6,4.82,4.82,0,0,1,50.47,7.63Z"/><path class="cls-1" d="M65.45,7.33A4.88,4.88,0,0,1,67,11.24H64.41a3.08,3.08,0,0,0-.9-2.39A3.64,3.64,0,0,0,61,8a3.71,3.71,0,0,0-2.21.59,1.91,1.91,0,0,0-.81,1.61,1.8,1.8,0,0,0,.38,1.22,2.6,2.6,0,0,0,1.09.67c.47.16,1.22.37,2.26.61a26.39,26.39,0,0,1,3.12.92A4.62,4.62,0,0,1,66.72,15a4,4,0,0,1,.81,2.64,4,4,0,0,1-1.67,3.37,7.17,7.17,0,0,1-4.47,1.27,7.16,7.16,0,0,1-4.78-1.44,5.2,5.2,0,0,1-1.72-4.15h2.72a3.27,3.27,0,0,0,1,2.55,4,4,0,0,0,2.82.9,4.15,4.15,0,0,0,2.44-.64,2.14,2.14,0,0,0,.49-3.05,2.8,2.8,0,0,0-1.25-.78c-.55-.2-1.41-.43-2.59-.72a21.72,21.72,0,0,1-2.84-.84A4.05,4.05,0,0,1,56,12.9a3.76,3.76,0,0,1-.72-2.46,3.91,3.91,0,0,1,1.61-3.23A6.48,6.48,0,0,1,61,6,6.58,6.58,0,0,1,65.45,7.33Z"/><path class="cls-1" d="M80.4,21.89l-6.87-7.75h-.06v7.75H70.79V.15h2.68V12.82h.06l6.26-6.44h3.33l-7,7,7.78,8.49Z"/><path class="cls-1" d="M86.05,3.18v-3h2.69v3Zm0,18.71V6.38h2.69V21.89Z"/><path class="cls-1" d="M104.46,2.75a3,3,0,0,0-.55,2V6.38H107V8.52h-3.09V21.89h-2.66V8.52H98.54V6.38h2.71V4.46a4.66,4.66,0,0,1,1.09-3.35A4.21,4.21,0,0,1,105.5,0a6.74,6.74,0,0,1,1.56.15V2.23a3.17,3.17,0,0,0-.89-.09A2.19,2.19,0,0,0,104.46,2.75Z"/><path class="cls-1" d="M118.31,19.42a3.52,3.52,0,0,0,1.36-2.17h2.75a6,6,0,0,1-2.22,3.62,8,8,0,0,1-8.53.41,6.64,6.64,0,0,1-2.52-2.93,10.52,10.52,0,0,1-.87-4.43,9.38,9.38,0,0,1,.87-4.1A6.67,6.67,0,0,1,111.66,7a7,7,0,0,1,3.83-1,6.75,6.75,0,0,1,4.38,1.44,7.05,7.05,0,0,1,2.4,4,14.77,14.77,0,0,1,.3,3.33H111a6.32,6.32,0,0,0,1.36,4.15,4.19,4.19,0,0,0,3.25,1.4A4.37,4.37,0,0,0,118.31,19.42ZM112.4,9.24a5.4,5.4,0,0,0-1.4,3.4h8.91a5.38,5.38,0,0,0-1.4-3.42,4.1,4.1,0,0,0-3-1.19A4.15,4.15,0,0,0,112.4,9.24Z"/><path class="cls-1" d="M135.34,7.33a4.91,4.91,0,0,1,1.58,3.91H134.3a3.08,3.08,0,0,0-.9-2.39A3.64,3.64,0,0,0,130.85,8a3.73,3.73,0,0,0-2.22.59,1.9,1.9,0,0,0-.8,1.61,1.75,1.75,0,0,0,.38,1.22,2.5,2.5,0,0,0,1.08.67c.47.16,1.22.37,2.26.61a26.65,26.65,0,0,1,3.13.92A4.66,4.66,0,0,1,136.6,15a4,4,0,0,1,.81,2.64,4,4,0,0,1-1.66,3.37,8.58,8.58,0,0,1-9.25-.17,5.21,5.21,0,0,1-1.73-4.15h2.72a3.27,3.27,0,0,0,1,2.55,4.06,4.06,0,0,0,2.83.9,4.17,4.17,0,0,0,2.44-.64,2,2,0,0,0,.91-1.68,2,2,0,0,0-.42-1.37,2.89,2.89,0,0,0-1.26-.78c-.54-.2-1.41-.43-2.59-.72a22.21,22.21,0,0,1-2.84-.84,4,4,0,0,1-1.69-1.25,3.76,3.76,0,0,1-.72-2.46,3.9,3.9,0,0,1,1.6-3.23A6.51,6.51,0,0,1,130.88,6,6.6,6.6,0,0,1,135.34,7.33Z"/><path class="cls-1" d="M147.44,19.63v2.2a6.67,6.67,0,0,1-1.71.18,4.27,4.27,0,0,1-3.22-1,4.84,4.84,0,0,1-1-3.41v-9h-2.69V6.38h2.69V2.63h2.69V6.38h3.08V8.52h-3.08v8.76a2.93,2.93,0,0,0,.49,1.92,2,2,0,0,0,1.64.58A3.52,3.52,0,0,0,147.44,19.63Z"/><path class="cls-1" d="M150.14,3.18v-3h2.69v3Zm0,18.71V6.38h2.69V21.89Z"/><path class="cls-1" d="M160.62,21.89,155,6.38h2.87l2.2,6.5c.93,2.79,1.69,5.09,2.26,6.9h.06c.81-2.6,1.56-4.9,2.23-6.9l2.23-6.5h2.87L164.1,21.89Z"/><path class="cls-1" d="M181.65,7.46a5.91,5.91,0,0,1,1.6,4.51v6a18.54,18.54,0,0,0,.37,4h-2.44a10.12,10.12,0,0,1-.22-2.26h-.06a5.36,5.36,0,0,1-2.17,1.92,7,7,0,0,1-3.2.68A5.59,5.59,0,0,1,171.71,21a4.15,4.15,0,0,1-1.43-3.28,4,4,0,0,1,1.33-3.19,9.12,9.12,0,0,1,4.56-1.7c1.51-.24,3-.41,4.49-.52v-.61a3.62,3.62,0,0,0-.93-2.74A3.59,3.59,0,0,0,177.15,8a3.67,3.67,0,0,0-2.57.84,3.09,3.09,0,0,0-1,2.24h-2.69a5.13,5.13,0,0,1,1.74-3.72A6.51,6.51,0,0,1,177.15,6,6.34,6.34,0,0,1,181.65,7.46Zm-5.05,7.35a6.48,6.48,0,0,0-2.77.91,2.08,2.08,0,0,0-.8,1.77,2.39,2.39,0,0,0,.83,1.94,3.48,3.48,0,0,0,2.34.72,5.07,5.07,0,0,0,1.79-.32,3.92,3.92,0,0,0,1.42-.9,4.3,4.3,0,0,0,1-1.51,6.51,6.51,0,0,0,.28-2.15v-.95A39.37,39.37,0,0,0,176.6,14.81Z"/><path class="cls-1" d="M187.29,21.89V.15H190V21.89Z"/><path class="cls-1" d="M213.39,8.15a8.62,8.62,0,0,1,2,6,8.61,8.61,0,0,1-2,6,7.72,7.72,0,0,1-10.79,0,8.61,8.61,0,0,1-2-6,8.62,8.62,0,0,1,2-6,7.72,7.72,0,0,1,10.79,0Zm-8.73,1.6a7,7,0,0,0-1.22,4.39,7,7,0,0,0,1.22,4.38,4.29,4.29,0,0,0,6.68,0,7,7,0,0,0,1.23-4.38,7,7,0,0,0-1.23-4.39,4.29,4.29,0,0,0-6.68,0Z"/><path class="cls-1" d="M246.41,7.63a7.05,7.05,0,0,1,1.36,4.67v9.59h-2.69V12.52a5.23,5.23,0,0,0-.81-3.27,2.86,2.86,0,0,0-2.36-1,3.18,3.18,0,0,0-2.68,1.32,5.72,5.72,0,0,0-1,3.54v8.79h-2.69V12.12a4.42,4.42,0,0,0-.82-2.85,2.79,2.79,0,0,0-2.32-1,3.17,3.17,0,0,0-2.7,1.35,6.08,6.08,0,0,0-1,3.69v8.61H226V6.38h2.59V8.3h.07a5.4,5.4,0,0,1,7.14-1.51A4.68,4.68,0,0,1,237.63,9,5.31,5.31,0,0,1,242.55,6,4.85,4.85,0,0,1,246.41,7.63Z"/><path class="cls-1" d="M260.93,19.42a3.48,3.48,0,0,0,1.36-2.17H265a6,6,0,0,1-2.21,3.62,8,8,0,0,1-8.54.41,6.68,6.68,0,0,1-2.51-2.93,10.52,10.52,0,0,1-.87-4.43,9.38,9.38,0,0,1,.87-4.1A6.65,6.65,0,0,1,254.28,7a7,7,0,0,1,3.83-1,6.75,6.75,0,0,1,4.38,1.44,7.05,7.05,0,0,1,2.4,4,14.77,14.77,0,0,1,.3,3.33h-11.6A6.37,6.37,0,0,0,255,18.84a4.19,4.19,0,0,0,3.25,1.4A4.37,4.37,0,0,0,260.93,19.42ZM255,9.24a5.35,5.35,0,0,0-1.41,3.4h8.92a5.39,5.39,0,0,0-1.41-3.42,4.48,4.48,0,0,0-6.1,0Z"/><path class="cls-1" d="M278,7.33a4.88,4.88,0,0,1,1.59,3.91h-2.63a3.08,3.08,0,0,0-.9-2.39A3.64,3.64,0,0,0,273.47,8a3.69,3.69,0,0,0-2.21.59,1.91,1.91,0,0,0-.81,1.61,1.8,1.8,0,0,0,.38,1.22,2.56,2.56,0,0,0,1.08.67c.47.16,1.22.37,2.26.61a26.07,26.07,0,0,1,3.13.92A4.69,4.69,0,0,1,279.23,15a4,4,0,0,1,.81,2.64,4,4,0,0,1-1.67,3.37,8.58,8.58,0,0,1-9.25-.17,5.24,5.24,0,0,1-1.73-4.15h2.72a3.27,3.27,0,0,0,1,2.55,4.09,4.09,0,0,0,2.83.9,4.15,4.15,0,0,0,2.44-.64,2,2,0,0,0,.92-1.68,2,2,0,0,0-.43-1.37,2.86,2.86,0,0,0-1.25-.78c-.55-.2-1.42-.43-2.6-.72a22.21,22.21,0,0,1-2.84-.84,4.09,4.09,0,0,1-1.69-1.25,3.76,3.76,0,0,1-.72-2.46,3.93,3.93,0,0,1,1.6-3.23A6.51,6.51,0,0,1,273.5,6,6.6,6.6,0,0,1,278,7.33Z"/><path class="cls-1" d="M290.07,19.63v2.2a6.78,6.78,0,0,1-1.71.18,4.25,4.25,0,0,1-3.22-1,4.79,4.79,0,0,1-1-3.41v-9h-2.68V6.38h2.68V2.63h2.69V6.38h3.08V8.52h-3.08v8.76a2.93,2.93,0,0,0,.49,1.92,2,2,0,0,0,1.65.58A3.57,3.57,0,0,0,290.07,19.63Z"/><path class="cls-1" d="M292.76,3.18v-3h2.69v3Zm0,18.71V6.38h2.69V21.89Z"/><path class="cls-1" d="M302.37,8.33a4.92,4.92,0,0,1,2-1.71A6.12,6.12,0,0,1,307,6a5.34,5.34,0,0,1,4.16,1.62,6.93,6.93,0,0,1,1.46,4.77v9.46h-2.69V12.64A5,5,0,0,0,309,9.27a3.36,3.36,0,0,0-2.66-1,3.72,3.72,0,0,0-2.88,1.26A5,5,0,0,0,302.31,13v8.88h-2.68V.15h2.68V8.33Z"/><path class="cls-1" d="M318.16,26.29h-1.77l1.16-4.4h-1.1V18.32h3.3v3.57Z"/><path class="cls-1" d="M332.25,20.61a7,7,0,0,1-1.45-4.76V6.38h2.69v9.25a5,5,0,0,0,.92,3.38,3.37,3.37,0,0,0,2.65,1,3.72,3.72,0,0,0,2.87-1.27,4.94,4.94,0,0,0,1.16-3.49V6.38h2.69V21.89h-2.6v-2h-.06a5.2,5.2,0,0,1-2,1.74,6,6,0,0,1-2.76.64A5.28,5.28,0,0,1,332.25,20.61Z"/><path class="cls-1" d="M356.29,6.35V8.76l-1.07-.09A4.28,4.28,0,0,0,351.83,10,5.87,5.87,0,0,0,350.64,14v7.91H348V6.38h2.56V8.76h.06a5,5,0,0,1,4.58-2.53A4.49,4.49,0,0,1,356.29,6.35Z"/><path class="cls-1" d="M361.45,8.52a4.64,4.64,0,0,1,1.9-1.85A5.84,5.84,0,0,1,366.18,6a6,6,0,0,1,3.42,1,6.28,6.28,0,0,1,2.26,2.84,10.77,10.77,0,0,1,.79,4.29,10.84,10.84,0,0,1-.79,4.29,6.39,6.39,0,0,1-2.28,2.85,6,6,0,0,1-3.43,1,5.78,5.78,0,0,1-2.84-.71,4.28,4.28,0,0,1-1.89-1.92h-.06v2.26H358.7V.15h2.69V8.52Zm1,1.23a7.39,7.39,0,0,0-1.15,4.36,7.44,7.44,0,0,0,1.15,4.36,3.57,3.57,0,0,0,3.07,1.62,3.75,3.75,0,0,0,3.17-1.63,7.19,7.19,0,0,0,1.19-4.35,7.11,7.11,0,0,0-1.19-4.34,3.74,3.74,0,0,0-3.17-1.62A3.59,3.59,0,0,0,362.41,9.75Z"/><path class="cls-1" d="M386.15,7.46a5.91,5.91,0,0,1,1.6,4.51v6a18.54,18.54,0,0,0,.37,4h-2.44a10.75,10.75,0,0,1-.22-2.26h-.06a5.4,5.4,0,0,1-2.16,1.92,7.1,7.1,0,0,1-3.21.68A5.59,5.59,0,0,1,376.21,21a4.19,4.19,0,0,1-1.43-3.28,4,4,0,0,1,1.33-3.19,9.12,9.12,0,0,1,4.56-1.7c1.51-.24,3-.41,4.49-.52v-.61a3.62,3.62,0,0,0-.93-2.74A3.59,3.59,0,0,0,381.65,8a3.67,3.67,0,0,0-2.57.84,3.09,3.09,0,0,0-1,2.24h-2.69a5.13,5.13,0,0,1,1.74-3.72A6.53,6.53,0,0,1,381.65,6,6.34,6.34,0,0,1,386.15,7.46Zm-5,7.35a6.47,6.47,0,0,0-2.76.91,2.09,2.09,0,0,0-.81,1.77,2.4,2.4,0,0,0,.84,1.94,3.47,3.47,0,0,0,2.33.72,5.07,5.07,0,0,0,1.79-.32,3.92,3.92,0,0,0,1.42-.9,4.16,4.16,0,0,0,1-1.51,6.51,6.51,0,0,0,.28-2.15v-.95A39.37,39.37,0,0,0,381.1,14.81Z"/><path class="cls-1" d="M403.32,7.66a6.93,6.93,0,0,1,1.46,4.77v9.46h-2.69V12.64a5,5,0,0,0-.91-3.37,3.36,3.36,0,0,0-2.66-1,3.72,3.72,0,0,0-2.88,1.26A5,5,0,0,0,394.49,13v8.88h-2.68V6.38h2.59V8.43h.06a5.08,5.08,0,0,1,2-1.74A5.77,5.77,0,0,1,399.16,6,5.32,5.32,0,0,1,403.32,7.66Z"/><path class="cls-1" d="M420.7,8.15a8.62,8.62,0,0,1,2,6,8.61,8.61,0,0,1-2,6,7.73,7.73,0,0,1-10.8,0,8.65,8.65,0,0,1-2-6,8.66,8.66,0,0,1,2-6,7.73,7.73,0,0,1,10.8,0ZM412,9.75a7,7,0,0,0-1.23,4.39A7,7,0,0,0,412,18.52a4.29,4.29,0,0,0,6.68,0,7,7,0,0,0,1.22-4.38,7,7,0,0,0-1.22-4.39,4.29,4.29,0,0,0-6.68,0Z"/><path class="cls-1" d="M435.43,7.33A4.91,4.91,0,0,1,437,11.24h-2.62a3.08,3.08,0,0,0-.9-2.39A3.64,3.64,0,0,0,430.94,8a3.73,3.73,0,0,0-2.22.59,1.9,1.9,0,0,0-.8,1.61,1.75,1.75,0,0,0,.38,1.22,2.5,2.5,0,0,0,1.08.67c.47.16,1.22.37,2.26.61a26.65,26.65,0,0,1,3.13.92A4.66,4.66,0,0,1,436.69,15a4,4,0,0,1,.81,2.64,4,4,0,0,1-1.66,3.37,8.58,8.58,0,0,1-9.25-.17,5.21,5.21,0,0,1-1.73-4.15h2.72a3.27,3.27,0,0,0,1,2.55,4.06,4.06,0,0,0,2.83.9,4.17,4.17,0,0,0,2.44-.64,2,2,0,0,0,.91-1.68,2,2,0,0,0-.42-1.37,2.89,2.89,0,0,0-1.26-.78c-.54-.2-1.41-.43-2.59-.72a22.21,22.21,0,0,1-2.84-.84A4,4,0,0,1,426,12.9a3.76,3.76,0,0,1-.72-2.46,3.9,3.9,0,0,1,1.6-3.23A6.51,6.51,0,0,1,431,6,6.6,6.6,0,0,1,435.43,7.33Z"/><path class="cls-1" d="M447.53,19.63v2.2a6.67,6.67,0,0,1-1.71.18,4.27,4.27,0,0,1-3.22-1,4.84,4.84,0,0,1-1-3.41v-9h-2.69V6.38h2.69V2.63h2.69V6.38h3.08V8.52H444.3v8.76a2.93,2.93,0,0,0,.49,1.92,2,2,0,0,0,1.64.58A3.52,3.52,0,0,0,447.53,19.63Z"/><path class="cls-1" d="M450.23,3.18v-3h2.69v3Zm0,18.71V6.38h2.69V21.89Z"/><path class="cls-1" d="M464.7,3.18v-3h2.69v3Zm0,18.71V6.38h2.69V21.89Z"/><path class="cls-1" d="M483.07,7.66a6.88,6.88,0,0,1,1.47,4.77v9.46h-2.69V12.64a5,5,0,0,0-.91-3.37,3.36,3.36,0,0,0-2.66-1,3.75,3.75,0,0,0-2.89,1.26A5,5,0,0,0,474.25,13v8.88h-2.69V6.38h2.6V8.43h.06a5.12,5.12,0,0,1,1.95-1.74A5.81,5.81,0,0,1,478.92,6,5.3,5.3,0,0,1,483.07,7.66Z"/><path class="cls-1" d="M506.2,7.46A5.91,5.91,0,0,1,507.8,12v6a18.54,18.54,0,0,0,.37,4h-2.44a10.12,10.12,0,0,1-.22-2.26h-.06a5.4,5.4,0,0,1-2.16,1.92,7.1,7.1,0,0,1-3.21.68A5.59,5.59,0,0,1,496.26,21a4.19,4.19,0,0,1-1.43-3.28,4,4,0,0,1,1.33-3.19,9.12,9.12,0,0,1,4.56-1.7c1.51-.24,3-.41,4.49-.52v-.61a3.62,3.62,0,0,0-.93-2.74A3.59,3.59,0,0,0,501.7,8a3.67,3.67,0,0,0-2.57.84,3.09,3.09,0,0,0-1,2.24h-2.69a5.13,5.13,0,0,1,1.74-3.72A6.51,6.51,0,0,1,501.7,6,6.34,6.34,0,0,1,506.2,7.46Zm-5.05,7.35a6.48,6.48,0,0,0-2.77.91,2.11,2.11,0,0,0-.8,1.77,2.4,2.4,0,0,0,.84,1.94,3.44,3.44,0,0,0,2.33.72,5.07,5.07,0,0,0,1.79-.32,3.92,3.92,0,0,0,1.42-.9,4.3,4.3,0,0,0,1-1.51,6.51,6.51,0,0,0,.28-2.15v-.95A39.37,39.37,0,0,0,501.15,14.81Z"/><path class="cls-1" d="M520.19,6.35V8.76l-1.07-.09A4.28,4.28,0,0,0,515.73,10,5.87,5.87,0,0,0,514.54,14v7.91h-2.68V6.38h2.56V8.76h.06a5,5,0,0,1,4.58-2.53A4.55,4.55,0,0,1,520.19,6.35Z"/><path class="cls-1" d="M525.35,8.33a4.89,4.89,0,0,1,2-1.71A6.13,6.13,0,0,1,530,6a5.31,5.31,0,0,1,4.15,1.62,6.93,6.93,0,0,1,1.46,4.77v9.46h-2.68V12.64A5,5,0,0,0,532,9.27a3.34,3.34,0,0,0-2.65-1,3.74,3.74,0,0,0-2.89,1.26A5,5,0,0,0,525.29,13v8.88H522.6V.15h2.69V8.33Z"/><path class="cls-1" d="M539.65,3.18v-3h2.69v3Zm0,18.71V6.38h2.69V21.89Z"/><path class="cls-1" d="M553.37,19.63v2.2a6.67,6.67,0,0,1-1.71.18,4.27,4.27,0,0,1-3.22-1,4.84,4.84,0,0,1-1-3.41v-9h-2.69V6.38h2.69V2.63h2.69V6.38h3.08V8.52h-3.08v8.76a2.93,2.93,0,0,0,.49,1.92,2,2,0,0,0,1.64.58A3.52,3.52,0,0,0,553.37,19.63Z"/><path class="cls-1" d="M564.84,19.42a3.52,3.52,0,0,0,1.36-2.17H569a6.09,6.09,0,0,1-2.22,3.62,8,8,0,0,1-8.53.41,6.64,6.64,0,0,1-2.52-2.93,10.52,10.52,0,0,1-.87-4.43,9.38,9.38,0,0,1,.87-4.1A6.71,6.71,0,0,1,558.18,7,7,7,0,0,1,562,6a6.75,6.75,0,0,1,4.38,1.44,7,7,0,0,1,2.39,4,14.13,14.13,0,0,1,.31,3.33H557.5a6.32,6.32,0,0,0,1.36,4.15,4.19,4.19,0,0,0,3.25,1.4A4.37,4.37,0,0,0,564.84,19.42ZM558.93,9.24a5.4,5.4,0,0,0-1.4,3.4h8.91A5.38,5.38,0,0,0,565,9.22a4.49,4.49,0,0,0-6.11,0Z"/><path class="cls-1" d="M582,21.89l-6.87-7.75H575v7.75h-2.68V.15H575V12.82h.06l6.26-6.44h3.33l-7,7,7.79,8.49Z"/><path class="cls-1" d="M594.84,19.63v2.2a6.78,6.78,0,0,1-1.71.18,4.25,4.25,0,0,1-3.22-1,4.84,4.84,0,0,1-1-3.41v-9h-2.68V6.38h2.68V2.63h2.69V6.38h3.08V8.52H591.6v8.76a2.93,2.93,0,0,0,.49,1.92,2,2,0,0,0,1.65.58A3.57,3.57,0,0,0,594.84,19.63Z"/><path class="cls-1" d="M598.79,20.61a7,7,0,0,1-1.45-4.76V6.38H600v9.25A5,5,0,0,0,601,19a3.37,3.37,0,0,0,2.65,1,3.72,3.72,0,0,0,2.87-1.27,4.94,4.94,0,0,0,1.16-3.49V6.38h2.69V21.89h-2.6v-2h-.06a5.2,5.2,0,0,1-2,1.74,6,6,0,0,1-2.76.64A5.28,5.28,0,0,1,598.79,20.61Z"/><path class="cls-1" d="M622.83,6.35V8.76l-1.07-.09A4.28,4.28,0,0,0,618.37,10,5.87,5.87,0,0,0,617.18,14v7.91H614.5V6.38h2.56V8.76h.06a5,5,0,0,1,4.58-2.53A4.49,4.49,0,0,1,622.83,6.35Z"/><path class="cls-1" d="M625.24,3.18v-3h2.69v3Zm0,18.71V6.38h2.69V21.89Z"/></svg>